<svg xmlns="http://www.w3.org/2000/svg" width="512" height="512" viewBox="0 0 512 512" style="enable-background:new 0 0 512 512" xml:space="preserve"><path fill="#eae6e1" d="M358.432 325.131V454.38c0 28.303-22.887 51.19-51.19 51.19H75.082c-28.303 0-51.19-22.887-51.19-51.19V130.035c0-28.25 22.887-51.19 51.19-51.19h118.151c-16.78 25.117-26.71 55.013-27.029 86.874-.478 48.641 20.816 92.449 54.589 122.24 1.752 1.54 2.867 3.664 2.974 6.053l4.354 69.936c.478 7.008 8.443 10.726 14.072 6.585l57.456-42.11c1.806-1.381 4.036-1.912 6.319-1.593 6.956.85 14.072 1.328 21.188 1.328 10.726-.001 21.187-1.01 31.276-3.027z" data-original="#cce0f1"/><path fill="#ff595a" d="M133.702 150.122v31.956c0 5.951-4.851 10.802-10.802 10.802H90.994c-5.951 0-10.802-4.851-10.802-10.802v-31.956c0-5.951 4.851-10.802 10.802-10.802H122.9c5.95.001 10.802 4.851 10.802 10.802z" data-original="#d81a60"/><path fill="#eae6e1" d="M133.702 243.58v31.956c0 5.951-4.851 10.802-10.802 10.802H90.994c-5.951 0-10.802-4.851-10.802-10.802V243.58c0-5.951 4.851-10.802 10.802-10.802H122.9c5.95 0 10.802 4.851 10.802 10.802z" data-original="#faa629"/><path fill="#eae6e1" d="M133.702 337.038v31.956c0 5.951-4.851 10.802-10.802 10.802H90.994c-5.951 0-10.802-4.851-10.802-10.802v-31.956c0-5.951 4.851-10.802 10.802-10.802H122.9c5.95 0 10.802 4.851 10.802 10.802z" data-original="#ffffff"/><path fill="#ff595a" d="M133.702 430.495v31.956c0 5.951-4.851 10.802-10.802 10.802H90.994c-5.951 0-10.802-4.851-10.802-10.802v-31.956c0-5.951 4.851-10.802 10.802-10.802H122.9c5.95.001 10.802 4.852 10.802 10.802z" data-original="#3eb655"/><path d="M358.432 325.131v16.196a178.469 178.469 0 0 1-31.277 2.761c-6.691 0-13.594-.371-20.444-1.115l-55.066 40.41c-4.301 3.186-9.346 4.832-14.656 4.832-13.01 0-23.896-10.195-24.745-23.205l-4.142-67.015c-37.277-34.038-58.305-82.095-57.775-132.435.265-31.276 9.187-60.961 24.427-86.715h18.479c-16.78 25.117-26.71 55.013-27.029 86.874-.478 48.641 20.816 92.449 54.589 122.24 1.752 1.54 2.867 3.664 2.974 6.053l4.354 69.936c.478 7.008 8.443 10.726 14.072 6.585l57.456-42.11c1.806-1.381 4.036-1.912 6.319-1.593 6.956.85 14.072 1.328 21.188 1.328 10.726-.001 21.187-1.01 31.276-3.027z" fill="#001233" data-original="#000000"/><path fill="#ff595a" d="M488.112 167.246c0 88.87-72.067 160.937-160.937 160.937-7.166 0-14.255-.477-21.182-1.353-2.31-.319-4.54.239-6.371 1.592l-57.415 42.126c-5.654 4.141-13.617.399-14.095-6.61l-4.3-69.917a8.742 8.742 0 0 0-3.025-6.052c-33.765-29.782-55.027-73.58-54.549-122.236.797-84.172 68.643-154.964 152.735-159.106 92.613-4.618 169.139 69.122 169.139 160.619z" data-original="#d81a60"/><path fill="#eae6e1" d="M327.126 233.364c-7.89 0-14.285-6.395-14.285-14.285v-34.072c0-12.912 8.817-24.338 20.97-27.167 13.141-3.058 22.421-14.645 22.566-28.177.078-7.489-3.075-15.022-8.655-20.672-5.58-5.644-13.074-8.889-20.563-8.9h-.039c-7.756 0-15.061 3.024-20.568 8.524-5.535 5.53-8.588 12.896-8.588 20.733 0 7.89-6.395 14.285-14.285 14.285s-14.285-6.395-14.285-14.285c0-15.476 6.027-30.021 16.975-40.95 10.898-10.884 25.367-16.877 40.752-16.877h.084c15.055.022 29.943 6.361 40.841 17.39 10.904 11.032 17.064 25.998 16.902 41.056-.279 26.352-18.119 48.977-43.53 55.424l-.006 33.687c-.001 7.891-6.396 14.286-14.286 14.286zm.028 46.207c-3.767 0-7.427-1.484-10.055-4.171-2.684-2.628-4.23-6.342-4.23-10.055 0-.971.117-1.886.29-2.801.167-.912.458-1.827.798-2.684.402-.857.798-1.716 1.317-2.458a11.011 11.011 0 0 1 1.825-2.171c5.256-5.315 14.86-5.315 20.172 0 .631.628 1.256 1.37 1.769 2.171.519.742.971 1.602 1.317 2.458.34.857.631 1.772.798 2.684.229.915.285 1.83.285 2.801 0 3.714-1.484 7.427-4.168 10.055a14.323 14.323 0 0 1-10.118 4.171z" data-original="#ffffff"/><g fill="#001233"><path d="M75.097 510.887h232.148c31.166 0 56.519-25.353 56.519-56.516V329.387c74.116-16.72 129.658-83.045 129.658-162.141 0-94.852-79.14-170.653-174.706-165.922-52.461 2.584-99.177 30.935-127.918 72.188H75.097c-31.166 0-56.519 25.353-56.519 56.516V454.37c0 31.164 25.353 56.517 56.519 56.517zM319.24 11.931c90.477-4.437 163.562 67.554 163.562 155.314 0 92.535-81.228 166.428-176.081 154.314-3.122-.441-6.2.218-8.788 1.712-1.262.713-58.355 42.599-58.891 42.994-1.502 1.11-2.997.624-3.564.354-.584-.272-1.938-1.109-2.068-3.006l-4.299-69.95a13.976 13.976 0 0 0-4.812-9.677c-33.971-29.962-53.195-73.04-52.749-118.203.744-79.953 66.155-149.835 147.69-153.852zM29.198 130.028c0-25.306 20.592-45.896 45.899-45.896h108.532c-14.813 25.229-22.443 53.935-22.724 81.535-.462 48.842 20.814 94.909 56.384 126.319.726.625 1.151 1.457 1.203 2.354l4.286 69.412c.189.531.139 8.743 8.222 12.499l.002.001.003.002c4.821 2.244 10.417 1.454 14.344-1.423l57.505-42.17c.702-.496 1.524-.698 2.473-.56 14.91 1.886 31.858 1.84 47.448-.581.122-.019.247-.025.369-.044V454.37c0 25.306-20.592 45.896-45.899 45.896H75.097c-25.306 0-45.899-20.59-45.899-45.896z" data-original="#25294f"/><path d="M90.996 198.191h31.902c8.883 0 16.112-7.229 16.112-16.112v-31.957c0-8.883-7.229-16.112-16.112-16.112H90.996c-8.888 0-16.117 7.229-16.117 16.112v31.957c0 8.883 7.229 16.112 16.117 16.112zm-5.497-48.069a5.502 5.502 0 0 1 5.497-5.492h31.902a5.498 5.498 0 0 1 5.492 5.492v31.957a5.498 5.498 0 0 1-5.492 5.492H90.996c-3.028 0-5.497-2.463-5.497-5.492zm5.497 141.526h31.902c8.883 0 16.112-7.229 16.112-16.112v-31.957c0-8.883-7.229-16.112-16.112-16.112H90.996c-8.888 0-16.117 7.229-16.117 16.112v31.957c0 8.883 7.229 16.112 16.117 16.112zm-5.497-48.069a5.502 5.502 0 0 1 5.497-5.492h31.902a5.498 5.498 0 0 1 5.492 5.492v31.957a5.498 5.498 0 0 1-5.492 5.492H90.996c-3.028 0-5.497-2.463-5.497-5.492zm5.497 141.528h31.902c8.883 0 16.112-7.229 16.112-16.115v-31.954c0-8.883-7.229-16.112-16.112-16.112H90.996c-8.888 0-16.117 7.229-16.117 16.112v31.954c0 8.886 7.229 16.115 16.117 16.115zm-5.497-48.069a5.502 5.502 0 0 1 5.497-5.492h31.902a5.498 5.498 0 0 1 5.492 5.492v31.954a5.5 5.5 0 0 1-5.492 5.494H90.996a5.505 5.505 0 0 1-5.497-5.494zm93.182 2.031h23.232a5.309 5.309 0 0 0 5.31-5.31 5.308 5.308 0 0 0-5.31-5.31h-23.232c-2.935 0-5.31 2.378-5.31 5.31s2.375 5.31 5.31 5.31zm0 38.516h31.7c2.935 0 5.31-2.378 5.31-5.31s-2.375-5.31-5.31-5.31h-31.7c-2.935 0-5.31 2.378-5.31 5.31s2.375 5.31 5.31 5.31zM90.996 478.564h31.902c8.883 0 16.112-7.229 16.112-16.112v-31.957c0-8.883-7.229-16.112-16.112-16.112H90.996c-8.888 0-16.117 7.229-16.117 16.112v31.957c0 8.883 7.229 16.112 16.117 16.112zm-5.497-48.069a5.502 5.502 0 0 1 5.497-5.492h31.902a5.498 5.498 0 0 1 5.492 5.492v31.957a5.498 5.498 0 0 1-5.492 5.492H90.996c-3.028 0-5.497-2.463-5.497-5.492zm93.182 2.03h123.451c2.935 0 5.31-2.378 5.31-5.31s-2.375-5.31-5.31-5.31H178.681c-2.935 0-5.31 2.378-5.31 5.31s2.375 5.31 5.31 5.31zm0 38.517h102.874c2.935 0 5.31-2.378 5.31-5.31s-2.375-5.31-5.31-5.31H178.681c-2.935 0-5.31 2.378-5.31 5.31s2.375 5.31 5.31 5.31zm105-322.1c10.802 0 19.592-8.79 19.592-19.594 0-13.243 10.676-23.948 23.875-23.948 12.733.022 24.058 11.43 23.916 24.204-.119 11.077-7.706 20.561-18.456 23.061-14.53 3.386-25.078 16.986-25.078 32.341v34.073c0 10.804 8.79 19.594 19.597 19.594 10.802 0 19.592-8.79 19.592-19.592l.01-29.701c25.545-8.31 43.238-32.149 43.529-59.356.367-34.323-28.325-63.761-63.136-63.815-34.484 0-63.037 27.919-63.037 63.139 0 10.805 8.789 19.594 19.596 19.594zm43.514-72.112c28.607.043 52.747 24.464 52.443 53.081-.254 23.795-16.506 44.493-39.525 50.332a5.306 5.306 0 0 0-4.003 5.144l-.01 33.692c0 4.947-4.024 8.974-8.971 8.974s-8.976-4.027-8.976-8.974v-34.073c0-10.47 7.094-19.719 16.864-21.995 15.531-3.614 26.499-17.305 26.67-33.29.206-18.586-15.79-34.909-34.563-34.941-19.036 0-34.469 15.453-34.469 34.568 0 4.947-4.024 8.974-8.971 8.974s-8.976-4.027-8.976-8.974c-.003-28.869 23.274-52.518 52.487-52.518zm13.83 174.649c-8.385-8.397-23.779-7.097-30.103 2.878-4.952 7.076-4.592 17.936 2.38 24.754 7.493 7.666 20.105 7.67 27.681.083 7.73-7.554 7.615-20.245.042-27.715zm-7.509 20.168c-3.324 3.314-9.329 3.399-12.705-.044-3.709-3.628-3.282-9.532.062-12.638 3.158-3.191 9.376-3.246 12.658.036 3.41 3.388 3.51 9.193-.015 12.646z" data-original="#25294f"/></g></svg>