<svg xmlns="http://www.w3.org/2000/svg" width="512" height="512" viewBox="0 0 564 564.001" style="enable-background:new 0 0 512 512" xml:space="preserve"><path d="M449.254 197.598a8.534 8.534 0 0 1-7.863-5.207c-1.832-4.34.195-9.344 4.535-11.176a55.375 55.375 0 0 0 33.855-51.082c0-30.57-24.867-55.438-55.43-55.438a55.192 55.192 0 0 0-20.226 3.809 8.526 8.526 0 0 1-11.059-4.828 8.532 8.532 0 0 1 4.829-11.055 72.27 72.27 0 0 1 26.457-4.98c39.972 0 72.484 32.52 72.484 72.492a72.38 72.38 0 0 1-44.27 66.789 8.447 8.447 0 0 1-3.312.676zm-330.809 3.023a8.306 8.306 0 0 1-2.125-.273c-32.043-8.223-54.422-37.098-54.422-70.215 0-39.973 32.52-72.492 72.493-72.492 11.535 0 23.015 2.777 33.195 8.03a8.535 8.535 0 0 1 3.672 11.493c-2.164 4.184-7.313 5.828-11.492 3.664-7.887-4.066-16.426-6.133-25.375-6.133-30.567 0-55.434 24.867-55.434 55.438 0 25.324 17.11 47.406 41.602 53.695a8.527 8.527 0 0 1 6.144 10.383 8.542 8.542 0 0 1-8.258 6.41zm0 0" data-original="#000000"/><path d="M445.672 409.383a8.53 8.53 0 0 1-8.531-8.531V185.566c0-84.644-68.864-153.511-153.504-153.511-84.649 0-153.512 68.867-153.512 153.511v213.887a8.525 8.525 0 0 1-8.527 8.524c-4.707 0-8.528-3.817-8.528-8.524V185.566C113.07 91.516 189.586 15 283.637 15c94.043 0 170.558 76.516 170.558 170.566v215.286c0 4.71-3.812 8.53-8.523 8.53zM429.246 543.75H138.02c-13.758 0-24.95-11.195-24.95-24.95v-14.816c0-4.707 3.82-8.53 8.528-8.53 4.71 0 8.527 3.823 8.527 8.53v14.817c0 4.351 3.547 7.894 7.895 7.894h291.226c4.352 0 7.895-3.543 7.895-7.894v-15.528a8.526 8.526 0 0 1 8.53-8.527 8.522 8.522 0 0 1 8.524 8.527v15.528c0 13.754-11.191 24.949-24.949 24.949zm0 0" data-original="#000000"/><path d="M223.934 147.188c0 7.066-5.723 12.792-12.79 12.792-7.066 0-12.796-5.726-12.796-12.792s5.73-12.793 12.797-12.793c7.066 0 12.789 5.726 12.789 12.793zm93.812 200.41H249.52a8.524 8.524 0 0 1-8.524-8.524V267.91c0-4.71 3.816-8.531 8.524-8.531 4.71 0 8.53 3.82 8.53 8.531v62.633h51.169V267.91c0-4.71 3.816-8.531 8.527-8.531 4.707 0 8.531 3.82 8.531 8.531v71.164c0 4.707-3.824 8.524-8.53 8.524zm51.172-200.41c0 7.066-5.73 12.792-12.793 12.792-7.066 0-12.793-5.726-12.793-12.792s5.727-12.793 12.793-12.793c7.063 0 12.793 5.726 12.793 12.793zm0 0" data-original="#000000"/><path d="M275.105 245.262h17.055v68.226h-17.055zm0 0" data-original="#000000"/><path d="M232.465 279.371c-32.914 0-59.695-26.777-59.695-59.695 0-4.707 3.816-8.528 8.523-8.528 4.71 0 8.531 3.82 8.531 8.528 0 23.512 19.13 42.64 42.64 42.64 23.513 0 42.641-19.128 42.641-42.64 0-4.707 3.82-8.528 8.532-8.528 4.707 0 8.523 3.82 8.523 8.528 0 32.918-26.781 59.695-59.695 59.695zm0 0" data-original="#000000"/><path d="M334.8 279.371c-32.913 0-59.695-26.777-59.695-59.695 0-4.707 3.82-8.528 8.532-8.528 4.707 0 8.523 3.82 8.523 8.528 0 23.512 19.133 42.64 42.64 42.64 23.512 0 42.645-19.128 42.645-42.64a8.528 8.528 0 0 1 17.055 0c0 32.918-26.781 59.695-59.7 59.695zm0 0" data-original="#000000"/><path d="M283.637 228.207c-18.813 0-34.117-15.305-34.117-34.113s15.304-34.114 34.117-34.114c18.804 0 34.11 15.305 34.11 34.114s-15.306 34.113-34.11 34.113zm0-51.172c-9.41 0-17.063 7.653-17.063 17.059 0 9.402 7.653 17.054 17.063 17.054 9.402 0 17.054-7.652 17.054-17.054 0-9.406-7.652-17.059-17.054-17.059zm-76.758 281.434H104.543a8.529 8.529 0 0 1-8.531-8.528v-8.53c0-32.915 26.781-59.696 59.695-59.696 32.922 0 59.703 26.781 59.703 59.695v8.531c0 4.707-3.82 8.528-8.531 8.528zM113.07 441.41h85.278c0-23.512-19.13-42.64-42.641-42.64-23.504 0-42.637 19.128-42.637 42.64zm0 0" data-original="#000000"/><path d="M121.598 509.637c-14.106 0-25.586-11.48-25.586-25.586v-34.11a8.53 8.53 0 0 1 8.531-8.53h34.11c4.71 0 8.53 3.82 8.53 8.53v34.11c0 14.105-11.476 25.586-25.585 25.586zm-8.528-51.168v25.582c0 4.703 3.825 8.531 8.528 8.531 4.699 0 8.527-3.828 8.527-8.531v-25.582zm0 0" data-original="#000000"/><path d="M155.707 509.637c-14.105 0-25.582-11.48-25.582-25.586v-34.11c0-4.71 3.82-8.53 8.527-8.53h34.118c4.707 0 8.523 3.82 8.523 8.53v34.11c0 14.105-11.477 25.586-25.586 25.586zm-8.523-51.168v25.582c0 4.703 3.824 8.531 8.523 8.531 4.707 0 8.531-3.828 8.531-8.531v-25.582zm0 0" data-original="#000000"/><path d="M189.824 509.637c-14.11 0-25.586-11.48-25.586-25.586v-34.11a8.53 8.53 0 0 1 8.532-8.53h34.109c4.71 0 8.531 3.82 8.531 8.53v34.11c0 14.105-11.476 25.586-25.586 25.586zm-8.531-51.168v25.582c0 4.703 3.828 8.531 8.531 8.531 4.7 0 8.524-3.828 8.524-8.531v-25.582zm281.434 0h-102.34a8.528 8.528 0 0 1-8.528-8.528v-8.53c0-32.915 26.782-59.696 59.7-59.696 32.918 0 59.699 26.781 59.699 59.695v8.531c0 4.707-3.82 8.528-8.531 8.528zm-93.809-17.059h85.277c0-23.512-19.129-42.64-42.636-42.64-23.512 0-42.641 19.128-42.641 42.64zm0 0" data-original="#000000"/><path d="M377.445 509.637c-14.105 0-25.586-11.48-25.586-25.586v-34.11c0-4.71 3.817-8.53 8.528-8.53H394.5c4.71 0 8.527 3.82 8.527 8.53v34.11c0 14.105-11.472 25.586-25.582 25.586zm-8.527-51.168v25.582c0 4.703 3.824 8.531 8.527 8.531 4.7 0 8.528-3.828 8.528-8.531v-25.582zm0 0" data-original="#000000"/><path d="M411.559 509.637c-14.11 0-25.586-11.48-25.586-25.586v-34.11c0-4.71 3.82-8.53 8.527-8.53h34.113c4.707 0 8.528 3.82 8.528 8.53v34.11c0 14.105-11.477 25.586-25.582 25.586zm-8.532-51.168v25.582c0 4.703 3.828 8.531 8.532 8.531 4.699 0 8.527-3.828 8.527-8.531v-25.582zm0 0" data-original="#000000"/><path d="M445.672 509.637c-14.11 0-25.586-11.48-25.586-25.586v-34.11c0-4.71 3.816-8.53 8.527-8.53h34.114c4.71 0 8.53 3.82 8.53 8.53v34.11c0 14.105-11.476 25.586-25.585 25.586zm-8.531-51.168v25.582c0 4.703 3.828 8.531 8.53 8.531 4.7 0 8.524-3.828 8.524-8.531v-25.582zm0 0" data-original="#000000"/></svg>