<svg xmlns="http://www.w3.org/2000/svg" xmlns:xlink="http://www.w3.org/1999/xlink" width="500" zoomAndPan="magnify" viewBox="0 0 375 374.999991" height="500" preserveAspectRatio="xMidYMid meet" version="1.0"><defs><clipPath id="d0be4b7ec8"><path d="M 221 215 L 309 215 L 309 321.140625 L 221 321.140625 Z M 221 215 " clip-rule="nonzero"/></clipPath><clipPath id="4ec6505865"><path d="M 66 215 L 154 215 L 154 321.140625 L 66 321.140625 Z M 66 215 " clip-rule="nonzero"/></clipPath><clipPath id="b1ebeb5fda"><path d="M 77 54.140625 L 298 54.140625 L 298 200 L 77 200 Z M 77 54.140625 " clip-rule="nonzero"/></clipPath></defs><path fill="#f5846f" d="M 194.882812 183.15625 C 194.195312 184.070312 192.898438 183.691406 192.6875 182.507812 C 191.941406 178.285156 191.363281 169.617188 196.515625 160.875 C 197.402344 159.363281 199.40625 159.488281 200.152344 161.097656 C 201.886719 164.855469 203.082031 172.269531 194.882812 183.15625 Z M 181.429688 182.507812 C 181.222656 183.691406 179.925781 184.070312 179.238281 183.15625 C 171.039062 172.269531 172.234375 164.855469 173.96875 161.097656 C 174.714844 159.488281 176.714844 159.363281 177.605469 160.875 C 182.757812 169.617188 182.175781 178.285156 181.429688 182.507812 Z M 218.785156 157.0625 C 214.609375 150.566406 206.605469 149.355469 199.550781 148.785156 C 190.828125 148.082031 181.9375 147.945312 173.21875 148.777344 C 166.917969 149.382812 159.816406 151.441406 156.183594 157.0625 C 148.769531 168.609375 159.476562 175.203125 169.777344 187.984375 C 172.890625 191.847656 176.539062 196.789062 181.347656 198.675781 C 191.667969 202.730469 199.230469 195.386719 205.195312 187.984375 C 215.488281 175.203125 226.195312 168.609375 218.785156 157.0625 " fill-opacity="1" fill-rule="nonzero"/><path fill="#f5846f" d="M 234.863281 208.8125 C 211.878906 197.640625 191.71875 208.636719 188.070312 210.839844 C 187.703125 211.0625 187.265625 211.0625 186.894531 210.839844 C 183.25 208.636719 163.085938 197.640625 140.105469 208.8125 C 139.5625 209.078125 139.308594 209.71875 139.523438 210.28125 C 140.488281 212.804688 143.355469 219.570312 147.929688 224.046875 C 148.671875 224.769531 149.925781 224.277344 149.917969 223.238281 C 149.90625 220.652344 150.425781 216.660156 153.230469 213.386719 C 153.699219 212.839844 154.527344 212.808594 155.007812 213.339844 C 156.691406 215.207031 160.230469 219.925781 160.644531 227.035156 C 160.707031 228.070312 161.960938 228.539062 162.648438 227.769531 C 163.84375 226.425781 165.59375 224.894531 168 223.789062 C 168.484375 223.566406 169.058594 223.71875 169.386719 224.136719 C 170.515625 225.589844 172.988281 229.179688 173.714844 233.53125 C 173.890625 234.566406 175.273438 234.8125 175.832031 233.921875 C 176.488281 232.875 177.335938 231.644531 178.421875 230.253906 C 178.863281 229.6875 179.695312 229.636719 180.1875 230.152344 C 181.710938 231.773438 184.746094 235.289062 186.429688 239.269531 C 186.820312 240.191406 188.148438 240.191406 188.539062 239.269531 C 190.222656 235.289062 193.257812 231.773438 194.777344 230.152344 C 195.273438 229.636719 196.101562 229.6875 196.542969 230.253906 C 197.632812 231.644531 198.480469 232.875 199.136719 233.921875 C 199.691406 234.8125 201.078125 234.566406 201.25 233.53125 C 201.976562 229.179688 204.453125 225.589844 205.582031 224.136719 C 205.910156 223.71875 206.484375 223.566406 206.964844 223.789062 C 209.371094 224.894531 211.121094 226.425781 212.316406 227.769531 C 213.007812 228.539062 214.261719 228.070312 214.320312 227.035156 C 214.738281 219.925781 218.277344 215.207031 219.957031 213.339844 C 220.441406 212.808594 221.265625 212.839844 221.734375 213.386719 C 224.539062 216.660156 225.0625 220.652344 225.046875 223.238281 C 225.042969 224.277344 226.296875 224.769531 227.035156 224.046875 C 231.609375 219.570312 234.476562 212.804688 235.445312 210.28125 C 235.660156 209.71875 235.40625 209.078125 234.863281 208.8125 " fill-opacity="1" fill-rule="nonzero"/><g clip-path="url(#d0be4b7ec8)"><path fill="#f5846f" d="M 251.433594 217.71875 C 252.269531 217.441406 253.117188 217.171875 253.980469 216.921875 C 276.335938 210.421875 299.628906 224.351562 305.136719 246.992188 C 310 266.976562 311.847656 293.898438 297.953125 318.480469 C 297.953125 318.480469 299.863281 278.585938 278.832031 263.726562 C 278.832031 263.726562 295.46875 284.59375 293.9375 321.160156 C 293.9375 321.160156 271.179688 289.765625 248.230469 272.152344 C 248.230469 272.152344 259.894531 301.25 276.917969 311.207031 C 276.917969 311.207031 256.445312 309.070312 237.804688 293.496094 C 211.382812 271.425781 218.800781 228.660156 251.433594 217.71875 " fill-opacity="1" fill-rule="nonzero"/></g><g clip-path="url(#4ec6505865)"><path fill="#f5846f" d="M 123.535156 217.71875 C 122.699219 217.441406 121.847656 217.171875 120.984375 216.921875 C 98.632812 210.421875 75.335938 224.351562 69.828125 246.992188 C 64.964844 266.976562 63.125 293.898438 77.011719 318.480469 C 77.011719 318.480469 75.101562 278.585938 96.136719 263.726562 C 96.136719 263.726562 79.5 284.59375 81.03125 321.160156 C 81.03125 321.160156 103.789062 289.765625 126.738281 272.152344 C 126.738281 272.152344 115.070312 301.25 98.050781 311.207031 C 98.050781 311.207031 118.519531 309.070312 137.160156 293.496094 C 163.585938 271.425781 156.167969 228.660156 123.535156 217.71875 " fill-opacity="1" fill-rule="nonzero"/></g><g clip-path="url(#b1ebeb5fda)"><path fill="#80612e" d="M 82.050781 182.152344 C 82.050781 119.800781 129.253906 69.261719 187.484375 69.261719 C 245.710938 69.261719 292.914062 119.800781 292.914062 182.152344 C 292.914062 187.527344 292.5625 192.8125 291.882812 197.984375 C 291.683594 199.515625 293.917969 199.917969 294.246094 198.410156 C 296.136719 189.792969 297.136719 180.808594 297.136719 171.570312 C 297.136719 106.722656 248.042969 54.152344 187.484375 54.152344 C 126.921875 54.152344 77.828125 106.722656 77.828125 171.570312 C 77.828125 180.808594 78.828125 189.792969 80.71875 198.414062 C 81.050781 199.921875 83.285156 199.515625 83.082031 197.988281 C 82.402344 192.8125 82.050781 187.527344 82.050781 182.152344 " fill-opacity="1" fill-rule="nonzero"/></g><path fill="#80612e" d="M 229.625 159.550781 C 229.433594 158.867188 229.785156 158.195312 230.527344 157.839844 C 240.117188 153.269531 304.824219 124.792969 374.042969 152.867188 C 374.042969 152.867188 313.03125 127.1875 232.996094 160.78125 C 231.675781 161.332031 229.953125 160.710938 229.625 159.550781 " fill-opacity="1" fill-rule="nonzero"/><path fill="#80612e" d="M 227.617188 176.84375 C 227.679688 176.265625 228.109375 175.773438 228.773438 175.515625 C 237.4375 172.132812 297.792969 150.253906 349.976562 175.164062 C 349.976562 175.164062 291.507812 154.058594 231.109375 178.6875 C 229.492188 179.347656 227.460938 178.261719 227.617188 176.84375 " fill-opacity="1" fill-rule="nonzero"/><path fill="#80612e" d="M 241.351562 190.390625 C 241.4375 189.613281 242.183594 189.007812 243.199219 188.894531 C 255.820312 187.515625 335.335938 180.949219 374.769531 229.273438 C 374.769531 229.273438 329.535156 183.109375 244.148438 192.558594 C 242.617188 192.726562 241.199219 191.734375 241.332031 190.5625 L 241.351562 190.390625 " fill-opacity="1" fill-rule="nonzero"/><path fill="#80612e" d="M 145.34375 159.550781 C 145.535156 158.867188 145.183594 158.195312 144.4375 157.839844 C 134.847656 153.269531 70.144531 124.792969 0.921875 152.867188 C 0.921875 152.867188 61.933594 127.1875 141.972656 160.78125 C 143.289062 161.332031 145.011719 160.710938 145.34375 159.550781 " fill-opacity="1" fill-rule="nonzero"/><path fill="#80612e" d="M 147.351562 176.84375 C 147.285156 176.265625 146.859375 175.773438 146.195312 175.515625 C 137.53125 172.132812 77.175781 150.253906 24.992188 175.164062 C 24.992188 175.164062 83.457031 154.058594 143.859375 178.6875 C 145.476562 179.347656 147.507812 178.261719 147.351562 176.84375 " fill-opacity="1" fill-rule="nonzero"/><path fill="#80612e" d="M 133.617188 190.390625 C 133.53125 189.613281 132.78125 189.007812 131.769531 188.894531 C 119.144531 187.515625 39.632812 180.949219 0.199219 229.273438 C 0.199219 229.273438 45.429688 183.109375 130.820312 192.558594 C 132.347656 192.726562 133.765625 191.734375 133.636719 190.5625 L 133.617188 190.390625 " fill-opacity="1" fill-rule="nonzero"/></svg>